<?xml version="1.0" encoding="utf-8"?>
<!-- Generator: Adobe Illustrator 21.0.0, SVG Export Plug-In . SVG Version: 6.00 Build 0)  -->
<svg version="1.1" id="Layer_1" xmlns="http://www.w3.org/2000/svg" xmlns:xlink="http://www.w3.org/1999/xlink" x="0px" y="0px"
	 viewBox="0 0 720 179.4" style="enable-background:new 0 0 720 179.4;" xml:space="preserve">
<style type="text/css">
	.st0{display:none;fill:#707561;}
	.st1{fill:none;stroke:url(#SVGID_1_);stroke-width:2;stroke-miterlimit:10;}
	.st2{fill:none;stroke:url(#Animate-one_1_);stroke-width:2;stroke-miterlimit:10;}
</style>
<image style="display:none;overflow:visible;" width="868" height="209" xlink:href="../task-1/images/section-1/bell.png"  transform="matrix(1 0 0 1 -148 -0.9864)">
</image>
<rect x="0" y="1.9" class="st0" width="720" height="175.7"/>
<g id="Base">
	
		<image style="overflow:visible;opacity:0.66;" width="730" height="180" xlink:href="3019C63D.png"  transform="matrix(1 0 0 1 -5.638 -1.555)">
	</image>
	<g>
		<linearGradient id="SVGID_1_" gradientUnits="userSpaceOnUse" x1="3.7869" y1="142.8918" x2="709.4405" y2="62.8904">
			<stop  offset="0" style="stop-color:#BFF1FF"/>
			<stop  offset="0.1487" style="stop-color:#FFFFFF"/>
			<stop  offset="0.4051" style="stop-color:#FFB235"/>
			<stop  offset="0.4769" style="stop-color:#F7E392"/>
			<stop  offset="0.5231" style="stop-color:#FF8935"/>
			<stop  offset="0.7179" style="stop-color:#F7E392"/>
			<stop  offset="1" style="stop-color:#FFB235"/>
		</linearGradient>
		<path class="st1" d="M-1.9,91.4c0,0,16.5-5,26.5-3.5s98.5,24,128.5,21s69-16,93.5-37.5c7-4.3,5.5,0.3,8.5,4.3s18.8,23.3,32.3,20.3
			s25.8-10.3,28-43c5.8-14.3,12-20,13.8-26.8s2-37-15.3-16.5c0,0-16.5,30.8-27.8,36.5s-20.3,13-18.3,5.3s14.3-18.5,18-24.8
			s9-11,36.3-12.2s25-2.3,37.8,0.8s11.3,4.5,20.8,5s24.5,2.5,25,7.3s0,15.5-35.3,9.8c-7.8-0.7-9,15.8-8,18.5s11.5,12,11.3,16.5
			s0,7.5-3.3,12.1s-4,4.5-5,9.9s0.1,9.8-3,11s-20.6,2.7-22.5,1.1c-1.9-1.6-3.6-4.9-4.6-9.9s-7.8-14.3-9.3-15.8
			c-1.6-1.5-6.8-20.6,2.9-29.3s15.4-13.8,29.8-11.6c14.3,2.2,22.5,11.7,23.2,25.7s-11.2,24-12,31s-5.7,20.2-18.3,19.4
			s-14.4-1.4-12.1-3.5s11.3-3.6,16.5-2.9s11.8,2.9,9.9,5s-8.9,9.1-17.8,8.4s-9.4-3.4-6-4.6s22.5-3.1,22.1,1.5s-7.1,11.1-15.3,10.4
			s-10.3-2-7.3-3.6s21.8-3.1,21.4,1.8s-15.9,8.9-23.6,8.4s-37.6-17.2-46.9-16.5c-9.3,0.7-14,2.7-12.7,6.7s45.3,32.7,53.3,33.7
			s46.3,8.7,52.7,7.7s31-19.7,31.7-23c0.7-3.3,2.3-5.7-6.7-4.3s-44,26-51,30.3c-7,4.3-17.7,5.3-14.3-5.7c3.3-11,12.7-16,19-21.7
			c6.3-5.7,11.3-14.3,12.3-22s4.3-16.3,12.7-19.7c8.3-3.3,20.3-11.3,32.3-2s14.3,29.3,17.3,31.3s31.3-12.3,45-14
			c13.7-1.7,48.3-13,86.3,0.3s54,38.7,69.3,44.7s54.7,9.7,79.7,2.3l1.3-0.3"/>
	</g>
</g>
<linearGradient id="Animate-one_1_" gradientUnits="userSpaceOnUse" x1="4.1546" y1="143.1075" x2="710.3654" y2="63.0429">
	<stop  offset="0" style="stop-color:#BFF1FF"/>
	<stop  offset="0.1487" style="stop-color:#FFFFFF"/>
	<stop  offset="0.4051" style="stop-color:#FFB235"/>
	<stop  offset="0.4769" style="stop-color:#F7E392"/>
	<stop  offset="0.5231" style="stop-color:#FF8935"/>
	<stop  offset="0.7179" style="stop-color:#F7E392"/>
	<stop  offset="1" style="stop-color:#FFB235"/>
</linearGradient>
<path id="Animate-one" class="st2" d="M-1.3,92.8c0,0,26.4-8.9,36.4-7.4s91,31.3,121,28.3s60.8-21.8,85.3-43.3
	c7-4.3,11.3,2.6,14.3,6.6c3,4,24.5,23.4,38,20.4s18.1-14.9,20.3-47.7c5.8-14.3,17.9-16.6,19.7-23.3s2.3-33.2-15-12.7
	c0,0-20.8,28.1-32,33.8s-20.3,13-18.3,5.3s16.9-17.1,20.6-23.4s6.3-10,33.6-11.3s26.8-6.1,39.6-3.1s10.5,9.8,20,10.3
	s22.5,2.8,23,7.5s4.3,12.6-31,6.8c-7.8-0.7-9.2,16.1-8.2,18.8s8.4,10.5,8.1,15s0,7.5-3.3,12.1s-4,4.5-5,9.9s0.1,9.8-3,11
	s-20.6,2.7-22.5,1.1c-1.9-1.6-3.6-4.9-4.6-9.9s-7.8-14.3-9.3-15.8s-6.8-20.6,2.9-29.3s16.8-12,31.1-9.8c14.3,2.2,19.3,13.5,20,27.5
	c0.7,14-9.4,20.4-10.2,27.4c-0.8,7-5.7,20.2-18.3,19.4s-14.4-1.4-12.1-3.5s11.7-2.2,16.9-1.5s11.3,1.5,9.4,3.6s-8.9,9.1-17.8,8.4
	s-6.9-3.4-3.5-4.6s20-3.1,19.6,1.5s-7.1,11.1-15.3,10.4s-7.4-2.3-4.4-3.9c3-1.6,17.9-2.4,17.5,2.5c-0.4,4.9-18.8,5.5-26.5,5
	s-33.7-14.3-43-13.6c-9.3,0.7-14,2.7-12.7,6.7c1.3,4,47.4,27.9,55.4,28.9s44,11,50.3,10c6.3-1,31.3-17.3,32-20.6
	c0.7-3.3-6.3-3.4-15.3-2.1s-35.4,23.7-42.4,28.1c-7,4.3-17.7,5.3-14.3-5.7s15.2-14.7,21.5-20.4c6.3-5.7,8.8-15.6,9.8-23.3
	s6.2-14.7,14.5-18.1s16-9.8,28-0.5s19.8,23,22.8,25c3,2,28.3-9.1,42-10.8c13.7-1.7,47.4-9.2,85.4,4.1s53,40.3,68.3,46.3
	s56.6-12.9,81.6-20.2"/>
</svg>
